<svg width="222" height="201" viewBox="0 0 222 201" fill="none" xmlns="http://www.w3.org/2000/svg">
<path d="M90.1465 62.9385C88.3505 62.9385 86.8945 64.2564 86.8945 65.8828V69.0301C86.8945 70.6565 88.3505 71.9744 90.1465 71.9744C91.9424 71.9744 93.3984 70.6565 93.3984 69.0301V65.8828C93.3984 64.2567 91.942 62.9385 90.1465 62.9385Z" fill="#EEEEEE"/>
<path d="M131.854 62.9385C130.058 62.9385 128.602 64.2564 128.602 65.8828V69.0301C128.602 70.6565 130.058 71.9744 131.854 71.9744C133.65 71.9744 135.106 70.6565 135.106 69.0301V65.8828C135.106 64.2567 133.65 62.9385 131.854 62.9385Z" fill="#EEEEEE"/>
<path d="M123.742 85.8441C122.481 84.6856 120.422 84.6739 119.144 85.8159C117.957 86.8758 115.112 88.114 111 88.114C106.889 88.114 104.044 86.8758 102.857 85.8159C101.578 84.6731 99.5187 84.686 98.2583 85.8437C96.997 87.0014 97.0109 88.8654 98.2891 90.0074C101.09 92.5089 105.841 94.0026 111 94.0026C116.159 94.0026 120.91 92.5089 123.711 90.0074C124.99 88.8658 125.004 87.0014 123.742 85.8441Z" fill="#EEEEEE"/>
<path d="M93.6213 53.4978H86.6704C84.8745 53.4978 83.4185 54.8157 83.4185 56.4421C83.4185 58.0686 84.8745 59.3864 86.6704 59.3864H93.6217C95.4177 59.3864 96.8737 58.0686 96.8737 56.4421C96.8737 54.8157 95.4172 53.4978 93.6213 53.4978Z" fill="#EEEEEE"/>
<path d="M135.33 53.4978H128.378C126.582 53.4978 125.126 54.8157 125.126 56.4421C125.126 58.0686 126.582 59.3864 128.378 59.3864H135.33C137.126 59.3864 138.582 58.0686 138.582 56.4421C138.582 54.8157 137.126 53.4978 135.33 53.4978Z" fill="#EEEEEE"/>
<path d="M180.647 140.243L157.208 133.719C157.246 133.078 157.194 132.429 157.027 131.788C156.513 129.821 155.074 128.174 153.078 127.27L138.582 120.708V111.35C149.427 104.521 157.06 93.786 158.969 81.4151H160.902C167.24 81.4151 172.676 77.1514 173.278 71.7075C173.615 68.6568 172.513 65.6112 170.254 63.3511C169.161 62.257 167.84 61.3914 166.388 60.7864V28.1198C166.388 16.085 155.574 6.29378 142.281 6.29378C142.264 6.29378 142.038 6.29378 141.731 6.29417C135.877 2.38411 127.276 0 117.734 0C97.421 0 88.0888 3.83154 77.2838 8.26804C71.5114 10.638 65.543 13.0885 57.0827 15.3285C56.1947 15.5637 55.4589 16.1302 55.0605 16.8866C54.662 17.6427 54.6382 18.517 54.995 19.29C55.0939 19.5043 56.5468 22.5582 60.2952 26.268C58.6766 28.0719 55.6129 32.6851 55.6129 41.7563V60.9176C51.871 62.533 49.1398 65.7329 48.7231 69.4981C48.3853 72.5488 49.4871 75.5948 51.7461 77.8556C54.0064 80.1177 57.2345 81.4147 60.6026 81.4147H63.0299C64.9368 93.7895 72.5702 104.526 83.4182 111.354V120.708L68.9219 127.27C66.9253 128.174 65.4857 129.821 64.9728 131.788C64.8059 132.429 64.7543 133.077 64.792 133.718L41.3525 140.243C31.1713 143.077 24.3306 151.461 24.3306 161.105V198.055C24.3306 199.681 25.7866 200.999 27.5825 200.999C29.3784 200.999 30.8344 199.681 30.8344 198.055V161.106C30.8344 154.064 35.8294 147.942 43.2642 145.872L67.6455 139.085L71.9488 144.281L67.0597 148.708C63.9491 151.524 63.1808 155.809 65.148 159.372L74.4572 176.228H65.5924V172.879C65.5924 171.253 64.1364 169.935 62.3405 169.935C60.5445 169.935 59.0885 171.253 59.0885 172.879V176.228H44.9617C43.1658 176.228 41.7098 177.546 41.7098 179.173V198.055C41.7098 199.681 43.1658 200.999 44.9617 200.999H79.7192C81.5152 200.999 82.9712 199.681 82.9712 198.055V191.645L87.2377 199.372C87.8074 200.403 88.9556 201 90.1488 201C90.6375 201 91.1335 200.899 91.6005 200.688C93.207 199.96 93.8582 198.192 93.0548 196.737L70.9655 156.737C70.2522 155.446 70.531 153.892 71.6588 152.871L78.5429 146.638C79.6872 145.602 79.8159 143.961 78.8451 142.789L71.4775 133.895C71.2326 133.599 71.2633 133.296 71.3037 133.141C71.344 132.986 71.4663 132.702 71.8318 132.537L84.6401 126.738L93.6822 154.807C94.1851 156.369 95.9897 157.264 97.7146 156.81C99.439 156.354 100.429 154.72 99.9259 153.159L98.5007 148.734C102.499 149.993 106.727 150.647 111.001 150.647C115.277 150.647 119.503 149.995 123.501 148.736L111.001 187.539L103.983 165.753C103.48 164.191 101.675 163.295 99.9502 163.75C98.2258 164.206 97.2359 165.841 97.7389 167.401L107.879 198.878C108.284 200.134 109.556 200.998 111.001 200.998C112.446 200.998 113.718 200.134 114.123 198.878L137.362 126.738L150.17 132.537C150.536 132.702 150.657 132.987 150.698 133.141C150.738 133.296 150.769 133.599 150.524 133.895L143.157 142.789C142.186 143.961 142.315 145.602 143.458 146.638L150.343 152.871C151.471 153.892 151.749 155.446 151.036 156.737L128.946 196.738C128.142 198.192 128.794 199.961 130.4 200.688C130.867 200.9 131.363 201 131.852 201C133.045 201 134.193 200.403 134.763 199.372L156.853 159.372C158.82 155.81 158.052 151.524 154.942 148.708L150.052 144.281L154.355 139.086L178.736 145.873C186.171 147.942 191.166 154.064 191.166 161.106V198.055C191.166 199.681 192.621 200.999 194.418 200.999C196.214 200.999 197.669 199.681 197.669 198.055V161.106C197.669 151.461 190.829 143.077 180.647 140.243ZM76.4664 195.11H48.2128V182.117H59.0877V182.32C59.0877 183.946 60.5437 185.264 62.3396 185.264C64.1355 185.264 65.5915 183.946 65.5915 182.32V182.117H76.4664V195.11ZM79.9694 13.631C90.5053 9.30523 98.8267 5.88864 117.734 5.88864C129.732 5.88864 140.453 10.4347 142.672 16.4635C143.241 18.0063 145.081 18.8389 146.786 18.3254C148.489 17.8112 149.41 16.1435 148.842 14.6011C148.655 14.0931 148.432 13.5949 148.179 13.1058C154.993 15.3065 159.884 21.2046 159.884 28.1198V59.792H156.185C154.145 59.792 152.485 58.2897 152.485 56.4426V53.2953C152.485 39.6451 141.57 29.6057 141.105 29.1849C140.248 28.4084 138.984 28.13 137.827 28.459C119.774 33.6206 94.3213 37.9707 75.5823 29.3863C68.9141 26.3312 64.9767 22.4491 62.9059 19.8569C69.8091 17.8029 75.16 15.6057 79.9694 13.631ZM132.078 122.108L125.868 141.388C121.317 143.596 116.204 144.76 111.001 144.76C105.801 144.76 100.683 143.597 96.1341 141.391L89.9221 122.108V114.803C96.298 117.605 103.45 119.179 111 119.179C118.55 119.179 125.702 117.604 132.078 114.8V122.108ZM111 113.29C87.8786 113.29 69.0681 96.2584 69.0681 75.3239C69.0681 73.6975 67.6121 72.3796 65.8161 72.3796C64.0202 72.3796 62.5642 73.6975 62.5642 75.3239V75.5265H60.6026C59.069 75.5265 57.5987 74.9353 56.5689 73.9048C55.5257 72.8609 55.0375 71.5045 55.1945 70.0854C55.4681 67.6153 58.0618 65.6803 61.0995 65.6803H65.8161C71.4424 65.6803 76.0194 61.5359 76.0194 56.4422V45.3292C76.0194 43.7027 74.5634 42.3848 72.7675 42.3848C70.9715 42.3848 69.5155 43.7027 69.5155 45.3292V56.4422C69.5155 58.2893 67.8558 59.7917 65.8161 59.7917H62.1167V41.7563C62.1167 34.9055 64.1503 31.4987 65.0894 30.2908C67.0762 31.7095 69.4063 33.1149 72.1336 34.4018C79.5033 37.8796 88.2749 39.8056 98.2041 40.126C109.842 40.5048 123.144 38.6565 137.765 34.6405C140.346 37.4702 145.982 44.6414 145.982 53.2949V56.4422C145.982 61.5363 150.559 65.6803 156.185 65.6803H161.399C162.932 65.6803 164.403 66.2715 165.432 67.302C166.476 68.3459 166.964 69.7018 166.807 71.121C166.534 73.5915 163.94 75.5265 160.903 75.5265H159.435V75.3545C159.435 73.7289 157.98 72.411 156.185 72.4102C156.184 72.4102 156.184 72.4102 156.183 72.4102C154.388 72.4102 152.933 73.7269 152.932 75.3522C152.914 96.271 134.104 113.29 111 113.29Z" fill="#EEEEEE"/>
<path d="M177.039 177.802H171.602V172.879C171.602 171.252 170.147 169.935 168.35 169.935C166.554 169.935 165.098 171.252 165.098 172.879V177.802H159.661C157.864 177.802 156.409 179.12 156.409 180.746C156.409 182.373 157.864 183.69 159.661 183.69H165.098V188.613C165.098 190.24 166.554 191.558 168.35 191.558C170.147 191.558 171.602 190.24 171.602 188.613V183.69H177.039C178.836 183.69 180.291 182.373 180.291 180.746C180.291 179.12 178.835 177.802 177.039 177.802Z" fill="#EEEEEE"/>
</svg>
